<?xml version="1.0" encoding="UTF-8"?>
<svg id="Calque_2" data-name="Calque 2" xmlns="http://www.w3.org/2000/svg" xmlns:xlink="http://www.w3.org/1999/xlink" viewBox="0 0 131.5 131.5">
  <defs>
    <style>
      .cls-1 {
        fill: none;
      }

      .cls-2 {
        clip-path: url(#clippath);
      }

      .cls-3 {
        fill: #fff;
      }

      .cls-4 {
        fill: #ffe893;
      }

      .cls-5 {
        fill: #261841;
      }
    </style>
    <clipPath id="clippath">
      <circle class="cls-1" cx="65.75" cy="65.75" r="65.75"/>
    </clipPath>
  </defs>
  <g id="Calque_1-2" data-name="Calque 1">
    <circle class="cls-4" cx="65.75" cy="65.75" r="56.75"/>
    <g class="cls-2">
      <path class="cls-3" d="m93.4,145.25c-6.9-2.49-12.92-2.86-19.41-.81-5.88,1.86-12.15,1.92-17.97-1.25-2.78-1.52-5.65-1.66-8.75-.64-3.59,1.19-7.06.75-10.79-.47-2.51-.83-5.72.46-8.62.81-1.12.13-2.99.73-3.22.34-.62-1.03-1.11-2.78-.63-3.72,2.77-5.44,5.18-11.25,8.95-15.94,5.99-7.46,12.99-14.11,19.47-21.18,2.79-3.04,5.59-6.11,7.99-9.45,6.1-8.5,2.86-18.58-7.17-22.41-.38,3.41-.76,6.79-1.14,10.17-.39,0-.78,0-1.17-.01-.31-2.24-.65-4.48-.92-6.73-.67-5.67-.69-5.71-7.16-7.92v13.85c-.3,0-.6,0-.9,0-.49-3.97-.96-7.95-1.48-11.91-.38-2.95-1.49-5.41-3.73-7.6-4.07-3.97-6.89-8.82-8.14-14.42-1.15-5.15.55-8.68,5.3-8.96,11.91-.71,23.65-3.82,35.75-2.18,24,3.25,39.77,22.53,37.89,46.73-.93,11.92-4.36,23.06-8.95,34.13-2.72,6.54-2.92,14.13-4.16,21.27-.45,2.59-.65,5.23-1.02,8.32Z"/>
      <path class="cls-5" d="m93.4,145.25c-6.9-2.49-12.92-2.86-19.41-.81-5.88,1.86-12.15,1.92-17.97-1.25-2.78-1.52-5.65-1.66-8.75-.64-3.59,1.19-7.06.75-10.79-.47-2.51-.83-5.72.46-8.62.81-1.12.13-2.99.73-3.22.34-.62-1.03-1.11-2.78-.63-3.72,2.77-5.44,5.18-11.25,8.95-15.94,5.99-7.46,12.99-14.11,19.47-21.18,2.79-3.04,5.59-6.11,7.99-9.45,6.1-8.5,2.86-18.58-7.17-22.41-.38,3.41-.76,6.79-1.14,10.17-.39,0-.78,0-1.17-.01-.31-2.24-.65-4.48-.92-6.73-.67-5.67-.69-5.71-7.16-7.92v13.85c-.3,0-.6,0-.9,0-.49-3.97-.96-7.95-1.48-11.91-.38-2.95-1.49-5.41-3.73-7.6-4.07-3.97-6.89-8.82-8.14-14.42-1.15-5.15.55-8.68,5.3-8.96,11.91-.71,23.65-3.82,35.75-2.18,24,3.25,39.77,22.53,37.89,46.73-.93,11.92-4.36,23.06-8.95,34.13-2.72,6.54-2.92,14.13-4.16,21.27-.45,2.59-.65,5.23-1.02,8.32ZM41.37,54.65c4.69.33,7.95,2.88,9.7,8.35.84,2.63,2.13,4.22,4.74,4.96,1.17.33,2.29.92,3.36,1.51,9.69,5.26,11.96,14.22,5.4,23.05-4.32,5.81-9.29,11.14-13.98,16.68-1.29,1.53-2.61,3.03-3.91,4.55.32.36.64.73.95,1.09,3.85-2.74,7.95-5.19,11.5-8.27,7.26-6.31,13.14-13.69,15.99-23.11,1.75-5.78,1.22-11.18-2.06-16.38-5.76-9.11-13.9-14.86-24.4-16.89-5.97-1.16-12.18-1.26-15.93-7.37,1.65,9.19,6.76,15.66,13.82,20.75l.87-.62c-1.99-2.72-3.98-5.45-6.07-8.3Zm30.01-3.55c1.76.39,2.59.62,3.44.75,4.97.77,5.98,2.96,3.38,7.37-.73,1.25-1.41,2.53-2.11,3.8,4.21-1.73,7.82-4.02,8.04-8.66.07-1.45-1.46-3.6-2.84-4.37-2.95-1.64-6.15-1.34-9.91,1.11Zm-21.71-4.47c.53-.02,1.07-.05,1.6-.07.79-1.35,2.29-2.77,2.15-4.01-.13-1.16-2.2-3.11-3.07-2.94-1.29.25-3.02,1.97-3.17,3.24-.14,1.14,1.58,2.51,2.48,3.78Z"/>
    </g>
  </g>
</svg>