<svg xmlns="http://www.w3.org/2000/svg" viewBox="0 0 161.16 273.16"><defs><style>.cls-1{fill:#332923;}.cls-2{fill:#c0b49c;}</style></defs><g id="Calque_2" data-name="Calque 2"><g id="Calque_1-2" data-name="Calque 1"><path class="cls-1" d="M54.66,242c.57,8.59-1,16.12-6.47,22.59a14.16,14.16,0,0,1-2.65,2.54c-19,13.5-42.24,3.35-44.71-19.66-.76-7.13-.38-14.28,2.35-21.09C7.24,216.23,16,210.84,28.07,210.91c11.87.07,19.92,5.55,24.24,15.57A33.51,33.51,0,0,1,54.66,242ZM40,242a58.75,58.75,0,0,0-.68-6.92c-1.42-6.7-5.69-10.63-11.27-10.66-6.1,0-10,3.64-11.54,10.8a34.09,34.09,0,0,0,1.06,16.71c1.36,4.7,4.32,7.36,9.1,7.91,5.1.59,8.62-1.9,10.91-6.23C39.49,250,39.93,246,40,242Z"/><path class="cls-1" d="M59.19,231.44c0-10.66.11-21.32-.06-32-.06-3.36.76-4.65,4.41-4.62C72.4,194.91,75,197,74.6,206c-.22,4.95.79,7.49,6.24,6.43,2.39-.46,3.21.59,3.1,3-.2,4.24-2.1,7.29-6.28,7.73-2.92.3-3,1.57-3,3.74.07,9,.2,18,0,27-.12,4.28,1.39,6.37,5.7,6,2.82-.26,4,.79,3.57,3.63a5.57,5.57,0,0,0,0,1c0,7.44,0,7.47-7.46,7.33-3.16-.06-6.34-.14-9.47-.49-4.86-.54-8-4.69-7.93-9.47.14-10.16,0-20.32,0-30.48Z"/><path class="cls-1" d="M86.71,230.12c0-10.32.1-20.65-.06-31-.05-3,.43-4.34,4-4.3,9.64.12,11.57,1.87,11.61,11.76,0,2.92-1.23,6.7,4.27,5.93,1.57-.22,4.08-1.17,4.87,1a7.06,7.06,0,0,1-1.22,6.63c-1,1.25-2.6,2.81-3.93,2.81-4.7,0-4.09,3-4.07,6,.06,8.32.1,16.65-.07,25-.08,4.11,1.25,6.55,5.71,6,3.3-.42,3.8,1.18,3.83,4,.1,8.25.21,8.25-8,8-15.84-.46-16.89-1.55-16.89-17.33V230.12Z"/><path class="cls-1" d="M125.81,271.57h-1c-6.83,0-6.9,0-7-6.69-.1-9.31-.5-18.64.53-27.9,2-18,14.94-24.16,30.3-24.56,2.2-.06,3,.8,2.87,2.9-.1,1.33,0,2.67-.05,4-.07,2.81.75,6.15-.49,8.29s-4.9.51-7.47.95c-6.56,1.13-9.68,4.79-9.81,12.29-.14,8.32-.37,16.66.08,25,.26,4.93-1.28,6.66-6,5.78A12.11,12.11,0,0,0,125.81,271.57Z"/><path class="cls-2" d="M10.86,142.08c22.44,43.4,76.86,57.44,122.9,24.76a42.23,42.23,0,0,0,7.85-7.56c16.31-19.21,20.91-41.56,19.23-67.06.83-15-.31-30.49-7-46C141,16.49,117.14.21,81.9,0,46-.21,20.06,15.81,8,45.86c-8.11,20.2-9.24,41.43-7,62.61a94.86,94.86,0,0,0,9.83,33.61m27.3-26.93c-.82-2.05-1.55-4.16-2.28-6.27-3-8.56-2.5-17.31-2.26-26.06a43.21,43.21,0,0,1,1.45-9.37,54.6,54.6,0,0,1,3.47-10.16,74.94,74.94,0,0,1,6.14-10.08,40.05,40.05,0,0,1,4.52-4.8c1.55-1.6,3-3.26,4.7-4.74a19.68,19.68,0,0,1,3.63-2.4c2.32-1.26,4.72-2.36,7-3.6A29.59,29.59,0,0,1,81,34.48a57.28,57.28,0,0,1,11.25,2.28,36.66,36.66,0,0,1,7.78,3.36,43,43,0,0,1,5.65,4.22,56.79,56.79,0,0,1,6.17,5.14c3.19,3.38,6.27,6.89,8.06,11.3,1.06,2.61,2.15,5.21,3.35,7.76,2.46,5.24,3,10.84,3.41,16.52.17,2.63,1.07,5.29.83,7.87C127.07,98,126,103,125.25,108.1c-.59,4.07-2.52,7.68-4.4,11.15s-3.81,7-7.72,8.79c-1.56.71-3,1.69-4.32,2.45,6.5.29,22.94-4.82,33.65-17.26l.7.24c-.78,1.9-1.53,3.8-2.36,5.68a12.12,12.12,0,0,1-1,1.45c-1.78,2.71-3.39,5.56-5.39,8.11a37.66,37.66,0,0,1-5.6,5.62c-3.13,2.61-6.35,5.13-9.71,7.43a61.62,61.62,0,0,1-8.42,4.84,45.08,45.08,0,0,1-6.47,2,30.45,30.45,0,0,1-4.33,1.16A77.41,77.41,0,0,1,88.57,151a62.09,62.09,0,0,1-12.21-1.46,50.16,50.16,0,0,1-9-3.31,25,25,0,0,1-5.36-3,117.23,117.23,0,0,1-11.33-9.38c-2.92-2.9-5.23-6.43-7.7-9.76a38.24,38.24,0,0,1-4.76-8.91"/><path class="cls-1" d="M81.9,0C46-.21,20.06,15.81,8,45.86c-8.11,20.2-9.24,41.43-7,62.61a94.86,94.86,0,0,0,9.83,33.61A80,80,0,0,0,31.35,167.5l27-27a83.69,83.69,0,0,1-7.77-6.64c-2.92-2.9-5.23-6.43-7.7-9.76a38.24,38.24,0,0,1-4.76-8.91c-.82-2.05-1.55-4.16-2.28-6.27-3-8.56-2.5-17.31-2.26-26.06a43.21,43.21,0,0,1,1.45-9.37,54.6,54.6,0,0,1,3.47-10.16,74.94,74.94,0,0,1,6.14-10.08,40.05,40.05,0,0,1,4.52-4.8c1.55-1.6,3-3.26,4.7-4.74a19.68,19.68,0,0,1,3.63-2.4c2.32-1.26,4.72-2.36,7-3.6A29.59,29.59,0,0,1,81,34.48a57.28,57.28,0,0,1,11.25,2.28,36.66,36.66,0,0,1,7.78,3.36,43,43,0,0,1,5.65,4.22,56.79,56.79,0,0,1,6.17,5.14c3.19,3.38,6.27,6.89,8.06,11.3,1.06,2.61,2.15,5.21,3.35,7.76a30.39,30.39,0,0,1,1.84,5.17l28.33-28.33C140.56,16.18,116.8.21,81.9,0Z"/></g></g></svg>